<?xml version="1.0" encoding="UTF-8"?>
<svg width="51" height="15" version="1.1" viewBox="0 0 13.494 3.9687" xmlns="http://www.w3.org/2000/svg"><g transform="translate(-15.743 -4.6302)"><path d="m15.743 4.6302h13.494v3.9687h-13.494z" fill="#21222c" stroke-width=".51048"/><g fill="#e9ebfc" stroke-width=".0795"><path d="m26.921 6.8612q0 0.6223 0.1397 0.93133 0.14393 0.30903 0.48683 0.30903 0.33867 0 0.4826-0.3048 0.14817-0.30903 0.14817-0.93557 0-0.61807-0.14817-0.9271-0.14393-0.30903-0.4826-0.30903-0.3429 0-0.48683 0.30903-0.1397 0.30903-0.1397 0.9271zm1.6341 0q0 0.48683-0.1016 0.8382-0.1016 0.34713-0.32173 0.5334-0.22013 0.18627-0.5842 0.18627-0.51223 0-0.75777-0.41063-0.2413-0.41487-0.2413-1.1472 0-0.49107 0.09737-0.8382 0.1016-0.34713 0.32173-0.52917 0.22013-0.18627 0.57997-0.18627 0.508 0 0.75777 0.41063 0.24977 0.4064 0.24977 1.143zm-0.87207 0.18203q-0.05503 0.071967-0.13547 0.071967-0.08043 0-0.13547-0.0762-0.05503-0.0762-0.05503-0.1778 0-0.10583 0.05503-0.1778 0.05503-0.0762 0.13547-0.0762 0.07197 0 0.13123 0.071967 0.05927 0.071967 0.05927 0.18203 0 0.10583-0.05503 0.18203z" aria-label="0"/><path d="m23.474 6.2092q-0.10583 0.27093-0.10583 0.65193t0.10583 0.65617q0.10583 0.27517 0.32597 0.42333 0.22437 0.14817 0.56303 0.14817 0.3429 0 0.5588-0.14817 0.22013-0.14817 0.32597-0.42333 0.10583-0.27517 0.10583-0.65617 0-0.5715-0.23707-0.89323-0.23707-0.32597-0.7493-0.32597-0.3429 0-0.56727 0.14817-0.22013 0.14393-0.32597 0.4191zm2.2818 0.65193q0 0.35137-0.0889 0.63923-0.0889 0.28363-0.2667 0.49107-0.17357 0.20743-0.43603 0.3175-0.25823 0.11007-0.60113 0.11007-0.3556 0-0.61807-0.11007-0.26247-0.1143-0.43603-0.3175-0.17357-0.20743-0.25823-0.4953-0.08467-0.28787-0.08467-0.63923 0-0.46567 0.1524-0.8128 0.1524-0.34713 0.46143-0.54187 0.31327-0.19473 0.7874-0.19473 0.45297 0 0.762 0.19473 0.30903 0.1905 0.46567 0.54187 0.16087 0.34713 0.16087 0.81703z" aria-label="O"/><path d="m21.346 8.3767h-0.36407v-2.1124q0-0.12277 0-0.20743 0.0042-0.084667 0.0085-0.15663 0.0042-0.0762 0.0085-0.15663-0.06773 0.067733-0.12277 0.1143-0.05503 0.046567-0.1397 0.11853l-0.3218 0.26247-0.19473-0.24977 0.81703-0.635h0.30903z" aria-label="1"/><path d="m19.019 8.419q-0.33443 0-0.48683-0.1778-0.1524-0.18203-0.1524-0.49953v-2.5823h0.37253v2.595q0 0.20743 0.0889 0.28363 0.0889 0.071967 0.22437 0.071967 0.08467 0 0.14817-0.0127 0.06773-0.0127 0.13123-0.029633v0.30057q-0.05503 0.021167-0.13547 0.033867-0.08043 0.016933-0.1905 0.016933z" aria-label="l"/><path d="m17.487 8.419h-1.0922v-0.22013l0.3556-0.080433v-2.4172l-0.3556-0.084667v-0.22013h1.0922v0.22013l-0.3556 0.084667v2.4172l0.3556 0.080433z" aria-label="I"/></g></g></svg>
