<?xml version="1.0" encoding="UTF-8"?>
<svg width="51" height="15" version="1.1" viewBox="0 0 13.494 3.9687" xmlns="http://www.w3.org/2000/svg"><g transform="translate(-15.743 -4.6302)"><path d="m15.743 4.6302h13.494v3.9687h-13.494z" fill="#21222c" stroke-width=".51048"/><g fill="#e9ebfc" stroke-width=".0795"><path d="m28.501 7.0931q0 0.67179-0.22944 0.99839t-0.71727 0.32659q-0.48162 0-0.71314-0.31833-0.23151-0.32039-0.23978-0.95498v-0.51056q0-0.66352 0.22944-0.98599 0.22944-0.32246 0.71934-0.32246 0.48576 0 0.7152 0.31213 0.22944 0.31006 0.23564 0.95911zm-0.3824-0.52297q0-0.48576-0.13643-0.70693-0.13643-0.22324-0.43202-0.22324-0.29352 0-0.42788 0.22118-0.13436 0.22117-0.13849 0.68006v0.61185q0 0.48783 0.14056 0.7214 0.14263 0.23151 0.42995 0.23151 0.28319 0 0.41961-0.21911 0.13849-0.21911 0.14469-0.6904z" aria-label="0"/><path d="m25.57 6.969q0 0.44235-0.14883 0.77308-0.14883 0.32866-0.42168 0.50229-0.27285 0.17363-0.63665 0.17363-0.35553 0-0.63045-0.17363-0.27492-0.1757-0.42788-0.49816-0.1509-0.32453-0.15503-0.75034v-0.21704q0-0.43408 0.1509-0.76688 0.1509-0.3328 0.42581-0.5085 0.27698-0.17777 0.63252-0.17777 0.36174 0 0.63665 0.1757 0.27699 0.17363 0.42581 0.50643 0.14883 0.33073 0.14883 0.77101zm-0.39481-0.1943q0-0.53537-0.21497-0.82062-0.21497-0.28732-0.60151-0.28732-0.3762 0-0.59324 0.28732-0.21497 0.28525-0.22118 0.79375v0.22117q0 0.51883 0.21704 0.81649 0.21911 0.29559 0.60151 0.29559 0.38447 0 0.59531-0.27905 0.21084-0.28112 0.21704-0.80408z" aria-label="O"/><path d="m21.373 8.3767h-0.38447v-2.5487l-0.77101 0.28319v-0.34727l1.0955-0.41134h0.05994z" aria-label="1"/><path d="m18.926 8.3767h-0.3824v-3.175h0.3824z" aria-label="l"/><path d="m17.143 8.419h-0.39687v-3.0096h0.39687z" aria-label="I"/></g></g></svg>
