<?xml version="1.0" encoding="UTF-8"?>
<svg width="51" height="15" version="1.1" viewBox="0 0 13.494 3.9687" xmlns="http://www.w3.org/2000/svg"><g transform="translate(-15.743 -4.6302)"><path d="m15.743 4.6302h13.494v3.9687h-13.494z" fill="#f5f5f5" stroke-width=".51048"/><g stroke-width=".0795"><path d="m27.569 5.4518q0.39688 0 0.65526 0.41755 0.26045 0.41548 0.26045 1.0563 0 0.65732-0.26045 1.0687-0.25838 0.41134-0.67179 0.41134-0.41961 0-0.67386-0.40308-0.25425-0.40308-0.25425-1.0687 0-0.65732 0.26252-1.0687 0.26252-0.41341 0.68213-0.41341zm0.0041 0.39274h-0.02067q-0.23771 0-0.37827 0.29352-0.13849 0.29145-0.13849 0.79168 0 0.51263 0.13642 0.80408 0.13643 0.29145 0.3762 0.29145 0.23978 0 0.37827-0.29145 0.13849-0.29145 0.13849-0.79168 0-0.50229-0.13436-0.79995-0.13229-0.29766-0.3576-0.29766z" aria-label="0"/><path d="m24.355 5.4477q0.66973 0 1.1141 0.42375 0.44648 0.42375 0.44648 1.0625t-0.45062 1.0583q-0.44855 0.41755-1.1327 0.41755-0.65319 0-1.0893-0.41755-0.43408-0.41961-0.43408-1.0501 0-0.64699 0.43822-1.0707 0.43822-0.42375 1.1079-0.42375zm0.01654 0.39274q-0.49609 0-0.81649 0.31006-0.31833 0.31006-0.31833 0.79168 0 0.46715 0.32039 0.77721 0.32039 0.31006 0.80202 0.31006 0.48369 0 0.80615-0.31626 0.32453-0.31626 0.32453-0.78755 0-0.45889-0.32453-0.77101-0.32246-0.31419-0.79375-0.31419z" aria-label="O"/><path d="m20.852 5.489h0.41341v2.8877h-0.41341z" aria-label="1"/><path d="m18.546 5.489h0.3762v2.8877h-0.3762z" aria-label="l"/><path d="m16.736 5.5314h0.41341v2.8877h-0.41341z" aria-label="I"/></g></g></svg>
