<?xml version="1.0" encoding="UTF-8"?>
<svg width="51" height="15" version="1.1" viewBox="0 0 13.494 3.9687" xmlns="http://www.w3.org/2000/svg"><g transform="translate(-15.743 -4.6302)"><path d="m15.743 4.6302h13.494v3.9687h-13.494z" fill="#21222c" stroke-width=".51048"/><g fill="#e9ebfc" stroke-width=".0795"><path d="m27.554 8.4317q-0.2921 0-0.51223-0.1778-0.2159-0.1778-0.33443-0.53763-0.11853-0.35983-0.11853-0.9017t0.11853-0.89323q0.11853-0.3556 0.33443-0.52917 0.22013-0.17357 0.51223-0.17357 0.29633 0 0.51223 0.1778 0.2159 0.17357 0.33443 0.52493 0.11853 0.35137 0.11853 0.89323t-0.11853 0.9017q-0.11853 0.35983-0.33443 0.53763-0.2159 0.1778-0.51223 0.1778zm0-0.31327q0.1778 0 0.30903-0.13547 0.13547-0.13547 0.20743-0.42333 0.0762-0.2921 0.0762-0.74507t-0.0762-0.7366q-0.07197-0.28787-0.20743-0.4191-0.13123-0.13547-0.30903-0.13547-0.17357 0-0.30903 0.13547-0.13547 0.13123-0.21167 0.4191-0.07197 0.28363-0.07197 0.7366t0.07197 0.74507q0.0762 0.28787 0.21167 0.42333 0.13547 0.13547 0.30903 0.13547z" aria-label="0"/><path d="m24.361 8.4317q-0.38947 0-0.69003-0.19473-0.29633-0.19897-0.46567-0.56303-0.16933-0.36407-0.16933-0.85937 0-0.49953 0.16933-0.85513 0.16933-0.35983 0.46567-0.55033 0.30057-0.1905 0.69003-0.1905t0.6858 0.19473q0.30057 0.1905 0.4699 0.5461t0.16933 0.85513q0 0.4953-0.16933 0.85937-0.16933 0.36407-0.4699 0.56303-0.29633 0.19473-0.6858 0.19473zm0-0.3429q0.2794 0 0.48683-0.15663t0.32173-0.4445 0.1143-0.6731q0-0.38947-0.1143-0.66887-0.1143-0.28363-0.32173-0.4318-0.20743-0.1524-0.48683-0.1524-0.27517 0-0.48683 0.1524-0.20743 0.14817-0.32173 0.4318-0.1143 0.2794-0.1143 0.66887 0 0.38523 0.1143 0.6731t0.32173 0.4445q0.21167 0.15663 0.48683 0.15663z" aria-label="O"/><path d="m20.252 8.3767v-0.32173h0.69427v-2.3156h-0.55457v-0.24553q0.20743-0.0381 0.35983-0.093133 0.15663-0.055033 0.28363-0.127h0.29633v2.7813h0.6223v0.32173z" aria-label="1"/><path d="m18.93 8.4317q-0.14393 0-0.23283-0.059267-0.0889-0.059267-0.13123-0.17357-0.04233-0.11853-0.04233-0.2794v-2.9125h0.38947v2.9379q0 0.0889 0.02963 0.127 0.03387 0.0381 0.0762 0.0381 0.01693 0 0.03387 0 0.01693-0.00423 0.04657-0.00847l0.05503 0.29633q-0.04233 0.0127-0.09313 0.021167-0.0508 0.0127-0.13123 0.0127z" aria-label="l"/><path d="m16.751 8.419v-3.103h0.38947v3.103z" aria-label="I"/></g></g></svg>
