<?xml version="1.0" encoding="UTF-8"?>
<svg width="600" height="50" version="1.1" xmlns="http://www.w3.org/2000/svg">

<!-- Generated by \logmu-dev\src\SimplexDoc\SimplexDoc\[Colors.xlsx]WeightSVG at 2024-10-30 12.07-->

    <rect x="10.5" y="10.5" width="1.70464277341878" height="39" fill="#2F0596" />
    <rect x="13.2046427734188" y="10.5" width="2.51054527947536" height="39" fill="#4903A0" />
    <rect x="16.7151880528941" y="10.5" width="3.55658258471923" height="39" fill="#6100A7" />
    <rect x="21.2717706376134" y="10.5" width="4.91430766404172" height="39" fill="#7801A8" />
    <rect x="27.1860783016551" y="10.5" width="6.67659413487794" height="39" fill="#8E0CA4" />
    <rect x="34.862672436533" y="10.5" width="8.96398916984489" height="39" fill="#A21D9A" />
    <rect x="44.8266616063779" y="10.5" width="11.9329593869906" height="39" fill="#B42E8D" />
    <rect x="57.7596209933685" y="10.5" width="15.7865937682619" height="39" fill="#C43E7F" />
    <rect x="74.5462147616304" y="10.5" width="20.7884957269799" height="39" fill="#D24F71" />
    <rect x="96.3347104886103" y="10.5" width="27.2808145951684" height="39" fill="#DE6164" />
    <rect x="124.615525083779" y="10.5" width="35.7076499538202" height="39" fill="#E97257" />
    <rect x="161.323175037599" y="10.5" width="46.6454297523101" height="39" fill="#F3854B" />
    <rect x="208.968604789909" y="10.5" width="60.8423401971572" height="39" fill="#F99A3E" />
    <rect x="270.810944987066" y="10.5" width="79.2695045661856" height="39" fill="#FDAF31" />
    <rect x="351.080449553252" y="10.5" width="103.187411775809" height="39" fill="#FDC627" />
    <rect x="455.267861329061" y="10.5" width="134.232138670939" height="39" fill="#F8DF25" />

</svg>