<?xml version="1.0" encoding="UTF-8" standalone="no"?>
<!-- Created with Inkscape (http://www.inkscape.org/) -->

<svg
   width="50.999996"
   height="14.999999"
   viewBox="0 0 13.493748 3.9687498"
   version="1.1"
   id="svg1"
   inkscape:version="1.3.2 (091e20e, 2023-11-25, custom)"
   sodipodi:docname="Font-Il1O0-Roboto-light.svg"
   xmlns:inkscape="http://www.inkscape.org/namespaces/inkscape"
   xmlns:sodipodi="http://sodipodi.sourceforge.net/DTD/sodipodi-0.dtd"
   xmlns="http://www.w3.org/2000/svg"
   xmlns:svg="http://www.w3.org/2000/svg">
  <sodipodi:namedview
     id="namedview1"
     pagecolor="#ffffff"
     bordercolor="#000000"
     borderopacity="0.25"
     inkscape:showpageshadow="2"
     inkscape:pageopacity="0.0"
     inkscape:pagecheckerboard="0"
     inkscape:deskcolor="#d1d1d1"
     inkscape:document-units="px"
     inkscape:zoom="13.662121"
     inkscape:cx="23.385827"
     inkscape:cy="11.308639"
     inkscape:window-width="1918"
     inkscape:window-height="1041"
     inkscape:window-x="1912"
     inkscape:window-y="0"
     inkscape:window-maximized="0"
     inkscape:current-layer="g4"
     inkscape:export-bgcolor="#ffffff00" />
  <defs
     id="defs1">
    <rect
       x="-2.2690474"
       y="-6.4411667"
       width="25.545082"
       height="27.887324"
       id="rect2" />
    <rect
       x="-3.9525342"
       y="-7.612288"
       width="46.69846"
       height="64.704445"
       id="rect1" />
    <rect
       x="20.288639"
       y="-30.639988"
       width="40.163227"
       height="101.85725"
       id="rect10" />
    <rect
       x="-155.17355"
       y="-65.582787"
       width="1334.4926"
       height="291.02362"
       id="rect8" />
  </defs>
  <g
     inkscape:label="Il1O0"
     inkscape:groupmode="layer"
     id="g4"
     transform="translate(-15.742707,-4.6302081)">
    <path
       id="rect3"
       style="opacity:1;fill:#f5f5f5;stroke-width:0.510477"
       inkscape:label="Background"
       d="m 15.742707,4.630208 h 13.49375 v 3.9687498 h -13.49375 z" />
    <path
       style="font-size:4.23333px;line-height:1.1;font-family:Roboto;-inkscape-font-specification:Roboto;text-align:center;letter-spacing:0px;text-anchor:middle;stroke-width:0.0795"
       d="m 28.500872,7.0930637 q 0,0.671793 -0.229443,0.9983878 -0.229443,0.3265948 -0.717268,0.3265948 -0.481624,0 -0.713135,-0.3183266 -0.23151,-0.3203936 -0.239778,-0.9549796 V 6.6341773 q 0,-0.6635248 0.229443,-0.9859855 0.229443,-0.3224606 0.719335,-0.3224606 0.485759,0 0.715202,0.3121254 0.229443,0.3100583 0.235644,0.9591137 z M 28.118467,6.5700986 q 0,-0.485758 -0.136426,-0.706933 -0.136426,-0.223242 -0.432015,-0.223242 -0.293521,0 -0.42788,0.221175 -0.134359,0.2211749 -0.138493,0.6800612 v 0.6118485 q 0,0.4878251 0.14056,0.7214024 0.142627,0.2315102 0.429948,0.2315102 0.283186,0 0.419612,-0.2191079 0.138493,-0.2191079 0.144694,-0.6903966 z"
       id="text3"
       inkscape:label="Number 0"
       aria-label="0" />
    <path
       style="font-size:4.23333px;line-height:1.1;font-family:Roboto;-inkscape-font-specification:Roboto;text-align:center;letter-spacing:0px;text-anchor:middle;stroke-width:0.0795"
       d="m 25.570207,6.9690403 q 0,0.4423499 -0.148828,0.7730788 -0.148828,0.3286618 -0.42168,0.5022945 -0.272851,0.1736327 -0.636653,0.1736327 -0.355533,0 -0.630452,-0.1736327 Q 23.457676,8.0687139 23.304714,7.7462532 23.153819,7.4217255 23.149685,6.9959121 V 6.7788712 q 0,-0.4340816 0.150895,-0.7668776 0.150895,-0.3327959 0.425813,-0.5084956 0.276985,-0.1777668 0.632519,-0.1777668 0.361735,0 0.636653,0.1756997 0.276986,0.1736327 0.425814,0.5064286 0.148828,0.3307289 0.148828,0.7710117 z M 25.175399,6.7747371 q 0,-0.5353674 -0.214974,-0.820621 -0.214974,-0.2873208 -0.601513,-0.2873208 -0.376204,0 -0.593245,0.2873208 -0.214974,0.2852536 -0.221175,0.7937493 v 0.2211749 q 0,0.518831 0.217041,0.816487 0.219108,0.2955889 0.601513,0.2955889 0.384472,0 0.595312,-0.2790525 0.21084,-0.2811195 0.217041,-0.8040846 z"
       id="text4"
       inkscape:label="Uppercase O"
       aria-label="O" />
    <path
       style="font-size:4.23333px;line-height:1.1;font-family:Roboto;-inkscape-font-specification:Roboto;text-align:center;letter-spacing:0px;text-anchor:middle;stroke-width:0.0795"
       d="M 21.372562,8.3767052 H 20.98809 V 5.8280257 L 20.217078,6.1112123 V 5.763947 l 1.095539,-0.4113441 h 0.05994 z"
       id="text5"
       inkscape:label="Number 1"
       aria-label="1" />
    <path
       style="font-size:4.23333px;line-height:1.1;font-family:Roboto;-inkscape-font-specification:Roboto;text-align:center;letter-spacing:0px;text-anchor:middle;stroke-width:0.0795"
       d="M 18.926394,8.3767052 H 18.543989 V 5.2017078 h 0.382405 z"
       id="text6"
       inkscape:label="Lowercase l"
       aria-label="l" />
    <path
       style="font-size:4.23333px;line-height:1.1;font-family:Roboto;-inkscape-font-specification:Roboto;text-align:center;letter-spacing:0px;text-anchor:middle;stroke-width:0.0795"
       d="M 17.142666,8.4190388 H 16.745792 V 5.4094059 h 0.396874 z"
       id="text7"
       inkscape:label="Uppercase I"
       aria-label="I" />
  </g>
</svg>
