<?xml version="1.0" encoding="UTF-8"?>
<svg width="600" height="50" version="1.1" xmlns="http://www.w3.org/2000/svg">

<!-- Generated by \logmu-dev\src\SimplexDoc\SimplexDoc\[Colors.xlsx]WeightSVG at 2024-10-30 12.07-->

    <rect x="10.5" y="10.5" width="35.25" height="39" fill="#2F0596" />
    <rect x="46.75" y="10.5" width="35.25" height="39" fill="#4903A0" />
    <rect x="83" y="10.5" width="35.25" height="39" fill="#6100A7" />
    <rect x="119.25" y="10.5" width="35.25" height="39" fill="#7801A8" />
    <rect x="155.5" y="10.5" width="35.25" height="39" fill="#8E0CA4" />
    <rect x="191.75" y="10.5" width="35.25" height="39" fill="#A21D9A" />
    <rect x="228" y="10.5" width="35.25" height="39" fill="#B42E8D" />
    <rect x="264.25" y="10.5" width="35.25" height="39" fill="#C43E7F" />
    <rect x="300.5" y="10.5" width="35.25" height="39" fill="#D24F71" />
    <rect x="336.75" y="10.5" width="35.25" height="39" fill="#DE6164" />
    <rect x="373" y="10.5" width="35.25" height="39" fill="#E97257" />
    <rect x="409.25" y="10.5" width="35.25" height="39" fill="#F3854B" />
    <rect x="445.5" y="10.5" width="35.25" height="39" fill="#F99A3E" />
    <rect x="481.75" y="10.5" width="35.25" height="39" fill="#FDAF31" />
    <rect x="518" y="10.5" width="35.25" height="39" fill="#FDC627" />
    <rect x="554.25" y="10.5" width="35.25" height="39" fill="#F8DF25" />

</svg>