<svg xmlns="http://www.w3.org/2000/svg"
    height="91.6"
    width="72"
    viewBox="140 118 720 916"
    >

    <!-- 
    Square view box
    <rect x="0" y="96" width="960" height="960" fill="none" stroke="red" stroke-width="10"/>
    Narrow view box
    <rect x="140" y="118" width="720" height="916" fill="none" stroke="blue" stroke-width="1"/>
    -->

    <path fill="#E92063" fill-opacity="0.33" d="
        M370 1026
        V346h265.691q89.923 0 152.115 62.192 62.192 62.192 62.192 152.115 0 89.538-62.192 151.73-62.192 62.192-152.115 62.192
        H460.769v251.769h-90.768
        Zm90.768-342.536h174.154q52.404 0 87.972-35.568 35.567-35.568 35.567-87.587 0-52.404-35.567-87.972-35.568-35.567-87.972-35.567
        H460.769v246.694
        Z
        "/>
    <path fill="#E92063" fill-opacity="0.67" d="
        M260 916
        V236h265.691q89.923 0 152.115 62.192 62.192 62.192 62.192 152.115 0 89.538-62.192 151.73-62.192 62.192-152.115 62.192
        H350.769v251.769h-90.768
        Zm90.768-342.536h174.154q52.404 0 87.972-35.568 35.567-35.568 35.567-87.587 0-52.404-35.567-87.972-35.568-35.567-87.972-35.567
        H350.769v246.694
        Z
        "/>
    <path fill="#E92063" fill-opacity="1" d="
        M150 806
        V126h265.691q89.923 0 152.115 62.192 62.192 62.192 62.192 152.115 0 89.538-62.192 151.73-62.192 62.192-152.115 62.192
        H240.769v251.769h-90.768
        Zm90.768-342.536h174.154q52.404 0 87.972-35.568 35.567-35.568 35.567-87.587 0-52.404-35.567-87.972-35.568-35.567-87.972-35.567
        H240.769v246.694
        Z
        "/>
</svg>


